<svg viewBox="0 0 386.36 72.06" xmlns="http://www.w3.org/2000/svg"><path d="m43.48 57.59a3.55 3.55 0 1 1 -3.55-3.59 3.55 3.55 0 0 1 3.55 3.59z" fill="#f26531"/><path d="m26.59 0a26.58 26.58 0 0 0 -26.59 26.59v24.41h53.18v-24.41a26.59 26.59 0 0 0 -26.59-26.59z" fill="#f3ea00"/><g fill="#4b3900"><path d="m116 36.06a11.73 11.73 0 0 1 7.88-3.37 5.23 5.23 0 0 1 5.25 3.37 11.83 11.83 0 0 1 8.2-3.37 5.39 5.39 0 0 1 5.58 5.37v9.78s0 1.9-.73 1.9h3.07v1.83h-7.67v-1.83h1.83c1.47 0 1.46-1.9 1.46-1.9v-9.94a3.52 3.52 0 0 0 -3.78-3.38 11.56 11.56 0 0 0 -7.64 3.58v9.66s.2 2-.55 2h3.37v1.83h-8.15v-1.85h1.71s1.59 0 1.59-2v-9.84a3.64 3.64 0 0 0 -3.87-3.38 10.62 10.62 0 0 0 -7.55 3.91v9.36s0 2-.63 2h3.45v1.83h-8.12v-1.88h1.79s1.51 0 1.51-2v-11.29a14 14 0 0 0 0-1.53h-3.3v-1.83h5.3z"/><path d="m251.37 36.06c1.83-2 6.07-3.37 8.83-3.37 7.29 0 8.93 3.45 8.93 6.75v8.32s.2 2-.56 2h3.43v1.83h-8.2v-1.85h1.71s1.58 0 1.58-2v-8.81c0-4.07-5.26-4.41-7.21-4.41a12.49 12.49 0 0 0 -8.51 3.91v9.36s0 2-.63 2h3.45v1.83h-8.19v-1.88h1.79s1.51 0 1.51-2v-11.29a14 14 0 0 0 0-1.53h-3.3v-1.83h5.31z"/><path d="m365.78 36.06c1.83-2 6.07-3.37 8.83-3.37 7.29 0 8.93 3.45 8.93 6.75v8.32s.2 2-.56 2h3.38v1.83h-8.16v-1.85h1.71s1.59 0 1.59-2v-8.81c0-4.07-5.26-4.41-7.21-4.41a12.49 12.49 0 0 0 -8.51 3.91v9.36s0 2-.64 2h3.46v1.83h-8.15v-1.88h1.79s1.51 0 1.51-2v-11.29a14 14 0 0 0 0-1.53h-3.28v-1.83h5.31z"/><path d="m195.46 38.65-2.13-.06v-11.27l-2.82-.07v-1.84h4.95z"/><path d="m193.38 38.48h2v9.82c0 1.61 1.69 1.52 1.69 1.52h1.13v1.84h-2.38c-2.43 0-2.47-3-2.47-3s0 0 0 0v-2.29z"/><path d="m331.51 38.59h-2.03v-11.27l-2.82-.07v-1.84h4.94z"/><path d="m329.49 38.48h2v9.82c0 1.61 1.69 1.52 1.69 1.52h1.13v1.84h-2.31c-2.42 0-2.47-3-2.47-3v-2.29z"/><path d="m237.46 32.69a11.2 11.2 0 0 0 -7.66 3.37v-3h-5.31v1.83h3.28a14 14 0 0 1 0 1.53v11.37c0 1.91-1.51 2-1.51 2h-1.79v1.83h8.15v-1.88h-3.45c.63 0 .63-2 .63-2v-8.9c1.21-2.15 5.18-4 7.21-4.18a6.06 6.06 0 0 1 5.08 1.79l1.75-1c-.95-1.85-3.73-2.76-6.38-2.76z"/><path d="m95.09 35 2.82-.07v-1.87h-4.91v3.85a9.83 9.83 0 0 0 -1.54-1.62 12.9 12.9 0 0 0 -16.2 0 9 9 0 0 0 0 14.17 12.94 12.94 0 0 0 16.2 0 10.56 10.56 0 0 0 1.54-1.65v.91s0 3 2.47 3h2.38v-1.9h-1.07s-1.69.09-1.69-1.52zm-4.9 13a11 11 0 0 1 -13.66 0 7.06 7.06 0 0 1 0-11.17 10.51 10.51 0 0 1 6.82-2.39 10.52 10.52 0 0 1 6.83 2.39 7.06 7.06 0 0 1 0 11.17z"/><path d="m149.62 49.46a9.3 9.3 0 0 1 -3.44-7.09 9.28 9.28 0 0 1 3.44-7.08 12.46 12.46 0 0 1 8.1-2.86 12.44 12.44 0 0 1 8.1 2.86 9.28 9.28 0 0 1 3.44 7.08 9.3 9.3 0 0 1 -3.44 7.09 12.49 12.49 0 0 1 -8.1 2.85 12.51 12.51 0 0 1 -8.1-2.85zm1.28-12.67a7.29 7.29 0 0 0 -2.75 5.58 7.35 7.35 0 0 0 2.74 5.63 10.6 10.6 0 0 0 6.83 2.39 10.58 10.58 0 0 0 6.83-2.39 7.35 7.35 0 0 0 2.74-5.59 7.32 7.32 0 0 0 -2.74-5.58 10.52 10.52 0 0 0 -6.83-2.39 10.49 10.49 0 0 0 -6.82 2.39z"/><path d="m211.12 52.32a12.57 12.57 0 0 1 -8.1-2.86 9.3 9.3 0 0 1 -3.44-7.09 9.28 9.28 0 0 1 3.42-7.08 12.51 12.51 0 0 1 8.1-2.86c6.25 0 11.49 4.27 11.54 9.51v1h-21.07a7.45 7.45 0 0 0 2.72 5 10.58 10.58 0 0 0 6.83 2.39c3.71 0 7.49-1.11 9.57-5l1.73.92c-2.49 4.73-7.18 6.06-11.21 6.06h-.09zm9.48-11.32a7.18 7.18 0 0 0 -2.6-4.26 10.76 10.76 0 0 0 -6.84-2.34 10.52 10.52 0 0 0 -6.83 2.39 7.59 7.59 0 0 0 -2.63 4.21z"/><path d="m294.71 52.32a12.57 12.57 0 0 1 -8.1-2.86 9.3 9.3 0 0 1 -3.44-7.09 9.28 9.28 0 0 1 3.44-7.08 12.51 12.51 0 0 1 8.1-2.86c6.25 0 11.48 4.27 11.54 9.51v1h-21.09a7.41 7.41 0 0 0 2.72 5 10.58 10.58 0 0 0 6.83 2.39c3.71 0 7.49-1.11 9.56-5l1.74.92c-2.49 4.73-7.18 6.06-11.21 6.06h-.09zm9.48-11.32a7.23 7.23 0 0 0 -2.64-4.22 10.82 10.82 0 0 0 -6.84-2.34 10.52 10.52 0 0 0 -6.83 2.39 7.59 7.59 0 0 0 -2.59 4.17z"/><path d="m347.13 52.32a12.57 12.57 0 0 1 -8.1-2.86 9.3 9.3 0 0 1 -3.44-7.09 9.28 9.28 0 0 1 3.41-7.08 12.51 12.51 0 0 1 8.1-2.86c6.25 0 11.49 4.27 11.54 9.51v1h-21.06a7.45 7.45 0 0 0 2.72 5 10.6 10.6 0 0 0 6.83 2.39c3.72 0 7.5-1.11 9.57-5l1.74.92c-2.5 4.73-7.19 6.06-11.22 6.06h-.09zm9.49-11.32a7.25 7.25 0 0 0 -2.62-4.26 10.74 10.74 0 0 0 -6.84-2.34 10.54 10.54 0 0 0 -6.83 2.39 7.61 7.61 0 0 0 -2.62 4.21z"/><path d="m311.75 49.46a9.3 9.3 0 0 1 -3.44-7.09 9.28 9.28 0 0 1 3.44-7.08 12.51 12.51 0 0 1 8.1-2.86 12.51 12.51 0 0 1 8.1 2.86 9.28 9.28 0 0 1 3.44 7.08 9.3 9.3 0 0 1 -3.39 7.09 12.51 12.51 0 0 1 -8.1 2.85 12.51 12.51 0 0 1 -8.1-2.85zm1.25-12.67a7.32 7.32 0 0 0 -2.74 5.58 7.35 7.35 0 0 0 2.74 5.63 10.58 10.58 0 0 0 6.83 2.39 10.58 10.58 0 0 0 6.85-2.39 7.35 7.35 0 0 0 2.74-5.59 7.32 7.32 0 0 0 -2.74-5.58 10.47 10.47 0 0 0 -6.83-2.39 10.52 10.52 0 0 0 -6.85 2.35z"/><path d="m175.25 49.46a9.34 9.34 0 0 1 -3.44-7.09 9.32 9.32 0 0 1 3.44-7.08 12.51 12.51 0 0 1 8.1-2.86 12.52 12.52 0 0 1 8.11 2.86 9.27 9.27 0 0 1 3.43 7.08 9.29 9.29 0 0 1 -3.43 7.09 12.52 12.52 0 0 1 -8.11 2.85 12.51 12.51 0 0 1 -8.1-2.85zm1.28-12.67a7.29 7.29 0 0 0 -2.75 5.58 7.33 7.33 0 0 0 2.75 5.63 10.55 10.55 0 0 0 6.82 2.39 10.58 10.58 0 0 0 6.83-2.39 7.33 7.33 0 0 0 2.75-5.59 7.29 7.29 0 0 0 -2.75-5.58 10.52 10.52 0 0 0 -6.83-2.39 10.49 10.49 0 0 0 -6.82 2.39z"/><path d="m241.89 35.45h1.94v3.3h-1.94z"/></g><path d="m41.57 18.5-14.66 14.64" fill="none" stroke="#4b3900" stroke-width="1.91"/><path d="m43.05 30.4-16.1 16.1" fill="none" stroke="#4b3900" stroke-width="1.91"/><path d="m26.8 12.89v59.17" fill="none" stroke="#4b3900" stroke-width="1.91"/><path d="m35.59 24.5v-8.9" fill="none" stroke="#4b3900" stroke-width="1.91"/><path d="m10.51 30.4 16.1 16.1" fill="none" stroke="#4b3900" stroke-width="1.91"/><path d="m16.46 36.55-7.55.04" fill="none" stroke="#4b3900" stroke-width="1.91"/><path d="m44.55 36.55-7.55.04" fill="none" stroke="#4b3900" stroke-width="1.91"/><path d="m12.03 18.5 5.62 5.61 9.04 9.03" fill="none" stroke="#4b3900" stroke-width="1.91"/><path d="m31.3 9.16-4.39 4.38" fill="none" stroke="#4b3900" stroke-width="1.91"/><path d="m22.34 9.2 4.35 4.34" fill="none" stroke="#4b3900" stroke-width="1.91"/><path d="m18.01 24.5v-8.9" fill="none" stroke="#4b3900" stroke-width="1.91"/></svg>