<svg viewBox="0 0 53.18 72.06" xmlns="http://www.w3.org/2000/svg"><path d="m43.48 57.59a3.55 3.55 0 1 1 -3.55-3.59 3.55 3.55 0 0 1 3.55 3.59z" fill="#f26531"/><path d="m26.59 0a26.58 26.58 0 0 0 -26.59 26.59v24.41h53.18v-24.41a26.59 26.59 0 0 0 -26.59-26.59z" fill="#f3ea00"/><g fill="none" stroke="#4b3900" stroke-width="1.91"><path d="m41.57 18.5-14.66 14.64"/><path d="m43.05 30.4-16.1 16.1"/><path d="m26.8 12.89v59.17"/><path d="m35.59 24.5v-8.9"/><path d="m10.51 30.4 16.1 16.1"/><path d="m16.46 36.55-7.55.04"/><path d="m44.55 36.55-7.55.04"/><path d="m12.03 18.5 5.62 5.61 9.04 9.03"/><path d="m31.3 9.16-4.39 4.38"/><path d="m22.34 9.2 4.35 4.34"/><path d="m18.01 24.5v-8.9"/></g></svg>