<svg xmlns="http://www.w3.org/2000/svg" viewBox="0 0 589.49 641.52"><defs><style>.cls-1{fill:#231f20;}.cls-2{fill:#5d3b15;}.cls-3{fill:#7b542c;}.cls-4,.cls-5{fill:none;}.cls-4{stroke:#231f20;stroke-width:2px;}.cls-5{stroke:#5d3b15;stroke-miterlimit:10;}</style></defs><title>Asset 1</title><g id="Layer_2" data-name="Layer 2"><g id="Head"><circle class="cls-1" cx="374.19" cy="299.17" r="199.98"/><rect class="cls-1" x="234.03" y="280.28" width="122" height="355.25"/><rect class="cls-1" x="433.98" y="280.28" width="140.19" height="355.25"/><rect class="cls-2" x="348.39" y="280.28" width="140.18" height="355.25"/><circle class="cls-2" cx="270.79" cy="270.44" r="270.44" transform="translate(-111.92 270.68) rotate(-45)"/><path class="cls-1" d="M260,303.19,518.8,549.26S562,440.91,558.44,233.35L308.59,125.69Z"/><polygon class="cls-2" points="136.46 333.93 136.46 221.68 136.46 185.93 137.96 100.19 291.7 100.19 357.77 166.26 471.12 166.26 471.12 264.58 471.12 288.9 456.81 277.46 445.37 290.33 429.64 278.89 418.2 291.76 406.76 280.32 352.41 334.66 136.46 333.93"/><path class="cls-3" d="M357.78,166.26s-21.1,98.32,113.34,98.32V166.26Z"/><polygon class="cls-1" points="445.37 165.91 471.12 165.91 471.12 194.51 445.37 165.91"/><polyline class="cls-4" points="471.12 236.46 451.57 251.72 348.12 251.72 348.12 221.21"/><path class="cls-1" d="M454.31,195.43a3,3,0,1,1-3-3A3,3,0,0,1,454.31,195.43Z"/><path class="cls-1" d="M444.59,185.72a3,3,0,1,1-3-3A3,3,0,0,1,444.59,185.72Z"/><path class="cls-1" d="M435.43,194.88a3,3,0,1,1-3-3A3,3,0,0,1,435.43,194.88Z"/><path class="cls-1" d="M313.43,183.07a12.16,12.16,0,1,1,24.31,0"/><path class="cls-4" d="M249.22,139.77a42.45,42.45,0,0,0-84.89,0"/><path class="cls-1" d="M230.75,139.77a24,24,0,0,0-47.95,0"/><rect class="cls-2" y="280.28" width="140.18" height="355.25"/><path class="cls-1" d="M553.85,279.58a17.82,17.82,0,1,0,17.82-17.83A17.82,17.82,0,0,0,553.85,279.58Z"/><polyline class="cls-4" points="367.77 371.24 358.34 387.59 348.9 371.24"/><polyline class="cls-4" points="385.96 371.24 376.52 387.59 367.09 371.24"/><polyline class="cls-4" points="404.14 371.24 394.71 387.59 385.28 371.24"/><polyline class="cls-4" points="422.33 371.24 412.89 387.59 403.46 371.24"/><polyline class="cls-4" points="440.51 371.24 431.08 387.59 421.64 371.24"/><polyline class="cls-4" points="458.7 371.24 449.27 387.59 439.83 371.24"/><polyline class="cls-4" points="476.89 371.24 467.45 387.59 458.02 371.24"/><polyline class="cls-4" points="222.28 371.24 212.85 387.59 203.41 371.24"/><polyline class="cls-4" points="240.47 371.24 231.03 387.59 221.6 371.24"/><polyline class="cls-4" points="258.65 371.24 249.22 387.59 239.79 371.24"/><polyline class="cls-4" points="276.84 371.24 267.41 387.59 257.97 371.24"/><polyline class="cls-4" points="295.03 371.24 285.59 387.59 276.16 371.24"/><polyline class="cls-4" points="313.21 371.24 303.78 387.59 294.35 371.24"/><polyline class="cls-4" points="331.4 371.24 321.97 387.59 312.53 371.24"/><polyline class="cls-4" points="349.59 371.24 340.15 387.59 330.72 371.24"/><polyline class="cls-5" points="366.57 387.59 357.14 403.94 347.7 387.59"/><polyline class="cls-5" points="384.76 387.59 375.32 403.94 365.89 387.59"/><polyline class="cls-5" points="402.94 387.59 393.51 403.94 384.08 387.59"/><polyline class="cls-5" points="421.13 387.59 411.7 403.94 402.26 387.59"/><polyline class="cls-5" points="439.32 387.59 429.88 403.94 420.45 387.59"/><polyline class="cls-5" points="457.5 387.59 448.07 403.94 438.63 387.59"/><polyline class="cls-5" points="475.69 387.59 466.25 403.94 456.82 387.59"/><polyline class="cls-5" points="221.09 387.59 211.65 403.94 202.22 387.59"/><polyline class="cls-5" points="239.27 387.59 229.84 403.94 220.4 387.59"/><polyline class="cls-5" points="257.46 387.59 248.02 403.94 238.59 387.59"/><polyline class="cls-5" points="275.64 387.59 266.21 403.94 256.77 387.59"/><polyline class="cls-5" points="293.83 387.59 284.39 403.94 274.96 387.59"/><polyline class="cls-5" points="312.01 387.59 302.58 403.94 293.15 387.59"/><polyline class="cls-5" points="330.2 387.59 320.77 403.94 311.33 387.59"/><polyline class="cls-5" points="348.39 387.59 338.95 403.94 329.52 387.59"/><polyline class="cls-5" points="367.77 423.86 358.34 440.21 348.9 423.86"/><polyline class="cls-5" points="385.96 423.86 376.52 440.21 367.09 423.86"/><polyline class="cls-5" points="404.14 423.86 394.71 440.21 385.28 423.86"/><polyline class="cls-5" points="422.33 423.86 412.89 440.21 403.46 423.86"/><polyline class="cls-5" points="440.51 423.86 431.08 440.21 421.64 423.86"/><polyline class="cls-5" points="458.7 423.86 449.27 440.21 439.83 423.86"/><polyline class="cls-5" points="476.89 423.86 467.45 440.21 458.02 423.86"/><polyline class="cls-5" points="222.28 423.86 212.85 440.21 203.41 423.86"/><polyline class="cls-5" points="240.47 423.86 231.03 440.21 221.6 423.86"/><polyline class="cls-5" points="258.65 423.86 249.22 440.21 239.79 423.86"/><polyline class="cls-5" points="276.84 423.86 267.41 440.21 257.97 423.86"/><polyline class="cls-5" points="295.03 423.86 285.59 440.21 276.16 423.86"/><polyline class="cls-5" points="313.21 423.86 303.78 440.21 294.35 423.86"/><polyline class="cls-5" points="331.4 423.86 321.97 440.21 312.53 423.86"/><polyline class="cls-5" points="349.59 423.86 340.15 440.21 330.72 423.86"/><polyline class="cls-5" points="367.77 457.9 358.34 474.25 348.9 457.9"/><polyline class="cls-5" points="385.96 457.9 376.52 474.25 367.09 457.9"/><polyline class="cls-5" points="404.14 457.9 394.71 474.25 385.28 457.9"/><polyline class="cls-5" points="422.33 457.9 412.89 474.25 403.46 457.9"/><polyline class="cls-5" points="440.51 457.9 431.08 474.25 421.64 457.9"/><polyline class="cls-5" points="458.7 457.9 449.27 474.25 439.83 457.9"/><polyline class="cls-5" points="476.89 457.9 467.45 474.25 458.02 457.9"/><polyline class="cls-5" points="222.28 457.9 212.85 474.25 203.41 457.9"/><polyline class="cls-5" points="240.47 457.9 231.03 474.25 221.6 457.9"/><polyline class="cls-5" points="258.65 457.9 249.22 474.25 239.79 457.9"/><polyline class="cls-5" points="276.84 457.9 267.41 474.25 257.97 457.9"/><polyline class="cls-5" points="295.03 457.9 285.59 474.25 276.16 457.9"/><polyline class="cls-5" points="313.21 457.9 303.78 474.25 294.35 457.9"/><polyline class="cls-5" points="331.4 457.9 321.97 474.25 312.53 457.9"/><polyline class="cls-5" points="349.59 457.9 340.15 474.25 330.72 457.9"/><polyline class="cls-4" points="367.77 406.22 358.34 422.57 348.9 406.22"/><polyline class="cls-4" points="385.96 406.22 376.52 422.57 367.09 406.22"/><polyline class="cls-4" points="404.14 406.22 394.71 422.57 385.28 406.22"/><polyline class="cls-4" points="422.33 406.22 412.89 422.57 403.46 406.22"/><polyline class="cls-4" points="440.51 406.22 431.08 422.57 421.64 406.22"/><polyline class="cls-4" points="458.7 406.22 449.27 422.57 439.83 406.22"/><polyline class="cls-4" points="476.89 406.22 467.45 422.57 458.02 406.22"/><polyline class="cls-4" points="222.28 406.22 212.85 422.57 203.41 406.22"/><polyline class="cls-4" points="240.47 406.22 231.03 422.57 221.6 406.22"/><polyline class="cls-4" points="258.65 406.22 249.22 422.57 239.79 406.22"/><polyline class="cls-4" points="276.84 406.22 267.41 422.57 257.97 406.22"/><polyline class="cls-4" points="295.03 406.22 285.59 422.57 276.16 406.22"/><polyline class="cls-4" points="313.21 406.22 303.78 422.57 294.35 406.22"/><polyline class="cls-4" points="331.4 406.22 321.97 422.57 312.53 406.22"/><polyline class="cls-4" points="349.59 406.22 340.15 422.57 330.72 406.22"/><polyline class="cls-4" points="367.77 440.21 358.34 456.56 348.9 440.21"/><polyline class="cls-4" points="385.96 440.21 376.52 456.56 367.09 440.21"/><polyline class="cls-4" points="404.14 440.21 394.71 456.56 385.28 440.21"/><polyline class="cls-4" points="422.33 440.21 412.89 456.56 403.46 440.21"/><polyline class="cls-4" points="440.51 440.21 431.08 456.56 421.64 440.21"/><polyline class="cls-4" points="458.7 440.21 449.27 456.56 439.83 440.21"/><polyline class="cls-4" points="476.89 440.21 467.45 456.56 458.02 440.21"/><polyline class="cls-4" points="222.28 440.21 212.85 456.56 203.41 440.21"/><polyline class="cls-4" points="240.47 440.21 231.03 456.56 221.6 440.21"/><polyline class="cls-4" points="258.65 440.21 249.22 456.56 239.79 440.21"/><polyline class="cls-4" points="276.84 440.21 267.41 456.56 257.97 440.21"/><polyline class="cls-4" points="295.03 440.21 285.59 456.56 276.16 440.21"/><polyline class="cls-4" points="313.21 440.21 303.78 456.56 294.35 440.21"/><polyline class="cls-4" points="331.4 440.21 321.97 456.56 312.53 440.21"/><polyline class="cls-4" points="349.59 440.21 340.15 456.56 330.72 440.21"/><polygon class="cls-3" points="17.57 635.53 27.96 613.96 37.54 635.53 27.56 641.52 17.57 635.53"/><polygon class="cls-3" points="37.54 635.53 47.93 613.96 57.51 635.53 47.53 641.52 37.54 635.53"/><polygon class="cls-3" points="57.51 635.53 67.89 613.96 77.48 635.53 67.5 641.52 57.51 635.53"/><polygon class="cls-3" points="367.77 635.53 378.16 613.96 387.74 635.53 377.76 641.52 367.77 635.53"/><polygon class="cls-3" points="387.74 635.53 398.13 613.96 407.71 635.53 397.73 641.52 387.74 635.53"/><polygon class="cls-3" points="407.71 635.53 418.1 613.96 427.68 635.53 417.69 641.52 407.71 635.53"/></g></g></svg>