<?xml version="1.0" encoding="UTF-8"?>
<svg width="59px" height="63px" viewBox="0 0 59 63" version="1.1" xmlns="http://www.w3.org/2000/svg" xmlns:xlink="http://www.w3.org/1999/xlink">
    <!-- Generator: Sketch 57.1 (83088) - https://sketch.com -->
    <title>bear-small</title>
    <desc>Created with Sketch.</desc>
    <g id="Page-1" stroke="none" stroke-width="1" fill="none" fill-rule="evenodd">
        <g id="bear-small" transform="translate(-10.000000, -11.000000)">
            <circle id="Oval" fill="#231F20" fill-rule="nonzero" cx="47.6034595" cy="40.3560705" r="19.5802872"></circle>
            <rect id="Rectangle" fill="#231F20" fill-rule="nonzero" x="33.8802219" y="38.5065274" width="11.9451697" height="34.7829634"></rect>
            <rect id="Rectangle" fill="#231F20" fill-rule="nonzero" x="53.4575718" y="38.5065274" width="13.7261749" height="34.7829634"></rect>
            <rect id="Rectangle" fill="#5D3B15" fill-rule="nonzero" x="45.0773499" y="38.5065274" width="13.7251958" height="34.7829634"></rect>
            <circle id="Oval" fill="#5D3B15" fill-rule="nonzero" transform="translate(37.479184, 37.542348) rotate(-45.000000) translate(-37.479184, -37.542348) " cx="37.4791844" cy="37.5423478" r="26.4791123"></circle>
            <path d="M36.4229765,40.7496736 L61.7624021,64.8426893 C61.7624021,64.8426893 65.9921671,54.2340078 65.6436031,33.9115535 L41.180483,23.3704308 L36.4229765,40.7496736 Z" id="Path" fill="#231F20" fill-rule="nonzero"></path>
            <polygon id="Path" fill="#5D3B15" fill-rule="nonzero" points="24.3270235 43.7594648 24.3270235 32.7689295 24.3270235 29.2686031 24.4738903 20.8736945 39.5267624 20.8736945 45.9957572 27.3426893 57.0939948 27.3426893 57.0939948 36.9693211 57.0939948 39.3505222 55.6928851 38.2304178 54.5727807 39.4905352 53.0326371 38.3704308 51.9125326 39.6305483 50.7924282 38.5104439 45.470953 43.8309399"></polygon>
            <path d="M45.9967363,27.3426893 C45.9967363,27.3426893 43.9308094,36.9693211 57.0939948,36.9693211 L57.0939948,27.3426893 L45.9967363,27.3426893 Z" id="Path" fill="#7B542C" fill-rule="nonzero"></path>
            <polygon id="Path" fill="#231F20" fill-rule="nonzero" points="54.5727807 27.3084204 57.0939948 27.3084204 57.0939948 30.1086815"></polygon>
            <polyline id="Path" stroke="#231F20" stroke-width="2" points="57.0939948 34.2160574 55.1798303 35.7101828 45.0509138 35.7101828 45.0509138 32.7229112"></polyline>
            <path d="M55.448107,30.1987598 C55.448107,30.3609844 55.316598,30.4924935 55.1543734,30.4924935 C54.9921487,30.4924935 54.8606397,30.3609844 54.8606397,30.1987598 C54.8606397,30.0365352 54.9921487,29.9050261 55.1543734,29.9050261 C55.316598,29.9050261 55.448107,30.0365352 55.448107,30.1987598 Z" id="Path" fill="#231F20" fill-rule="nonzero"></path>
            <path d="M54.4964099,29.2480418 C54.4964099,29.4102664 54.3649009,29.5417755 54.2026762,29.5417755 C54.0404516,29.5417755 53.9089426,29.4102664 53.9089426,29.2480418 C53.9089426,29.0858171 54.0404516,28.9543081 54.2026762,28.9543081 C54.3649009,28.9543081 54.4964099,29.0858171 54.4964099,29.2480418 Z" id="Path" fill="#231F20" fill-rule="nonzero"></path>
            <path d="M53.5995431,30.1449086 C53.5995431,30.3071332 53.468034,30.4386423 53.3058094,30.4386423 C53.1435848,30.4386423 53.0120757,30.3071332 53.0120757,30.1449086 C53.0120757,29.982684 53.1435848,29.8511749 53.3058094,29.8511749 C53.468034,29.8511749 53.5995431,29.982684 53.5995431,30.1449086 L53.5995431,30.1449086 Z" id="Path" fill="#231F20" fill-rule="nonzero"></path>
            <path d="M41.6543734,28.988577 C41.6419431,28.5552519 41.8660191,28.1494157 42.2393549,27.9290851 C42.6126907,27.7087546 43.0762779,27.7087546 43.4496138,27.9290851 C43.8229496,28.1494157 44.0470256,28.5552519 44.0345953,28.988577" id="Path" fill="#231F20" fill-rule="nonzero"></path>
            <path d="M35.3674935,24.7490209 C35.3326445,22.4786832 33.4822565,20.6564802 31.2116514,20.6564802 C28.9410463,20.6564802 27.0906584,22.4786832 27.0558094,24.7490209" id="Path" stroke="#231F20" stroke-width="2"></path>
            <path d="M33.5590731,24.7490209 C33.5017551,23.4942268 32.4677539,22.5063799 31.2116514,22.5063799 C29.955549,22.5063799 28.9215478,23.4942268 28.8642298,24.7490209" id="Path" fill="#231F20" fill-rule="nonzero"></path>
            <rect id="Rectangle" fill="#5D3B15" fill-rule="nonzero" x="10.9660574" y="38.5065274" width="13.7251958" height="34.7829634"></rect>
            <path d="M65.1941903,38.4379896 C65.1947313,39.4014762 65.9761343,40.1821488 66.939621,40.1817885 C67.9031078,40.181428 68.6839266,39.4001711 68.6837465,38.4366843 C68.6835663,37.4731974 67.9024555,36.6922324 66.9389687,36.6922324 C66.4760551,36.6922324 66.0321155,36.876191 65.704878,37.2036122 C65.3776404,37.5310333 65.1939308,37.975076 65.1941903,38.4379896 Z" id="Path" fill="#231F20" fill-rule="nonzero"></path>
            <polyline id="Path" stroke="#231F20" stroke-width="2" points="46.9748695 47.4125326 46.0515666 49.0133812 45.1272846 47.4125326"></polyline>
            <polyline id="Path" stroke="#231F20" stroke-width="2" points="48.7558747 47.4125326 47.8315927 49.0133812 46.9082898 47.4125326"></polyline>
            <polyline id="Path" stroke="#231F20" stroke-width="2" points="50.5359008 47.4125326 49.6125979 49.0133812 48.689295 47.4125326"></polyline>
            <polyline id="Path" stroke="#231F20" stroke-width="2" points="52.316906 47.4125326 51.392624 49.0133812 50.4693211 47.4125326"></polyline>
            <polyline id="Path" stroke="#231F20" stroke-width="2" points="54.0969321 47.4125326 53.1736292 49.0133812 52.2493473 47.4125326"></polyline>
            <polyline id="Path" stroke="#231F20" stroke-width="2" points="55.8779373 47.4125326 54.9546345 49.0133812 54.0303525 47.4125326"></polyline>
            <polyline id="Path" stroke="#231F20" stroke-width="2" points="57.6589426 47.4125326 56.7346606 49.0133812 55.8113577 47.4125326"></polyline>
            <polyline id="Path" stroke="#231F20" stroke-width="2" points="32.729765 47.4125326 31.8064621 49.0133812 30.8821802 47.4125326"></polyline>
            <polyline id="Path" stroke="#231F20" stroke-width="2" points="34.5107702 47.4125326 33.5864883 49.0133812 32.6631854 47.4125326"></polyline>
            <polyline id="Path" stroke="#231F20" stroke-width="2" points="36.2907963 47.4125326 35.3674935 49.0133812 34.4441906 47.4125326"></polyline>
            <polyline id="Path" stroke="#231F20" stroke-width="2" points="38.0718016 47.4125326 37.1484987 49.0133812 36.2242167 47.4125326"></polyline>
            <polyline id="Path" stroke="#231F20" stroke-width="2" points="39.8528068 47.4125326 38.9285248 49.0133812 38.0052219 47.4125326"></polyline>
            <polyline id="Path" stroke="#231F20" stroke-width="2" points="41.6328329 47.4125326 40.70953 49.0133812 39.7862272 47.4125326"></polyline>
            <polyline id="Path" stroke="#231F20" stroke-width="2" points="43.4138381 47.4125326 42.4905352 49.0133812 41.5662533 47.4125326"></polyline>
            <polyline id="Path" stroke="#231F20" stroke-width="2" points="45.1948433 47.4125326 44.2705614 49.0133812 43.3472585 47.4125326"></polyline>
            <polyline id="Path" stroke="#5D3B15" points="46.857376 49.0133812 45.9340731 50.6142298 45.0097911 49.0133812"></polyline>
            <polyline id="Path" stroke="#5D3B15" points="48.6383812 49.0133812 47.7140992 50.6142298 46.7907963 49.0133812"></polyline>
            <polyline id="Path" stroke="#5D3B15" points="50.4184073 49.0133812 49.4951044 50.6142298 48.5718016 49.0133812"></polyline>
            <polyline id="Path" stroke="#5D3B15" points="52.1994125 49.0133812 51.2761097 50.6142298 50.3518277 49.0133812"></polyline>
            <polyline id="Path" stroke="#5D3B15" points="53.9804178 49.0133812 53.0561358 50.6142298 52.1328329 49.0133812"></polyline>
            <polyline id="Path" stroke="#5D3B15" points="55.7604439 49.0133812 54.837141 50.6142298 53.912859 49.0133812"></polyline>
            <polyline id="Path" stroke="#5D3B15" points="57.5414491 49.0133812 56.6171671 50.6142298 55.6938642 49.0133812"></polyline>
            <polyline id="Path" stroke="#5D3B15" points="32.6132507 49.0133812 31.6889687 50.6142298 30.7656658 49.0133812"></polyline>
            <polyline id="Path" stroke="#5D3B15" points="34.3932768 49.0133812 33.4699739 50.6142298 32.5456919 49.0133812"></polyline>
            <polyline id="Path" stroke="#5D3B15" points="36.174282 49.0133812 35.25 50.6142298 34.3266971 49.0133812"></polyline>
            <polyline id="Path" stroke="#5D3B15" points="37.9543081 49.0133812 37.0310052 50.6142298 36.1067232 49.0133812"></polyline>
            <polyline id="Path" stroke="#5D3B15" points="39.7353133 49.0133812 38.8110313 50.6142298 37.8877285 49.0133812"></polyline>
            <polyline id="Path" stroke="#5D3B15" points="41.5153394 49.0133812 40.5920366 50.6142298 39.6687337 49.0133812"></polyline>
            <polyline id="Path" stroke="#5D3B15" points="43.2963446 49.0133812 42.3730418 50.6142298 41.4487598 49.0133812"></polyline>
            <polyline id="Path" stroke="#5D3B15" points="45.0773499 49.0133812 44.1530679 50.6142298 43.229765 49.0133812"></polyline>
            <polyline id="Path" stroke="#5D3B15" points="46.9748695 52.5646214 46.0515666 54.16547 45.1272846 52.5646214"></polyline>
            <polyline id="Path" stroke="#5D3B15" points="48.7558747 52.5646214 47.8315927 54.16547 46.9082898 52.5646214"></polyline>
            <polyline id="Path" stroke="#5D3B15" points="50.5359008 52.5646214 49.6125979 54.16547 48.689295 52.5646214"></polyline>
            <polyline id="Path" stroke="#5D3B15" points="52.316906 52.5646214 51.392624 54.16547 50.4693211 52.5646214"></polyline>
            <polyline id="Path" stroke="#5D3B15" points="54.0969321 52.5646214 53.1736292 54.16547 52.2493473 52.5646214"></polyline>
            <polyline id="Path" stroke="#5D3B15" points="55.8779373 52.5646214 54.9546345 54.16547 54.0303525 52.5646214"></polyline>
            <polyline id="Path" stroke="#5D3B15" points="57.6589426 52.5646214 56.7346606 54.16547 55.8113577 52.5646214"></polyline>
            <polyline id="Path" stroke="#5D3B15" points="32.729765 52.5646214 31.8064621 54.16547 30.8821802 52.5646214"></polyline>
            <polyline id="Path" stroke="#5D3B15" points="34.5107702 52.5646214 33.5864883 54.16547 32.6631854 52.5646214"></polyline>
            <polyline id="Path" stroke="#5D3B15" points="36.2907963 52.5646214 35.3674935 54.16547 34.4441906 52.5646214"></polyline>
            <polyline id="Path" stroke="#5D3B15" points="38.0718016 52.5646214 37.1484987 54.16547 36.2242167 52.5646214"></polyline>
            <polyline id="Path" stroke="#5D3B15" points="39.8528068 52.5646214 38.9285248 54.16547 38.0052219 52.5646214"></polyline>
            <polyline id="Path" stroke="#5D3B15" points="41.6328329 52.5646214 40.70953 54.16547 39.7862272 52.5646214"></polyline>
            <polyline id="Path" stroke="#5D3B15" points="43.4138381 52.5646214 42.4905352 54.16547 41.5662533 52.5646214"></polyline>
            <polyline id="Path" stroke="#5D3B15" points="45.1948433 52.5646214 44.2705614 54.16547 43.3472585 52.5646214"></polyline>
            <polyline id="Path" stroke="#5D3B15" points="46.9748695 55.8975196 46.0515666 57.4983681 45.1272846 55.8975196"></polyline>
            <polyline id="Path" stroke="#5D3B15" points="48.7558747 55.8975196 47.8315927 57.4983681 46.9082898 55.8975196"></polyline>
            <polyline id="Path" stroke="#5D3B15" points="50.5359008 55.8975196 49.6125979 57.4983681 48.689295 55.8975196"></polyline>
            <polyline id="Path" stroke="#5D3B15" points="52.316906 55.8975196 51.392624 57.4983681 50.4693211 55.8975196"></polyline>
            <polyline id="Path" stroke="#5D3B15" points="54.0969321 55.8975196 53.1736292 57.4983681 52.2493473 55.8975196"></polyline>
            <polyline id="Path" stroke="#5D3B15" points="55.8779373 55.8975196 54.9546345 57.4983681 54.0303525 55.8975196"></polyline>
            <polyline id="Path" stroke="#5D3B15" points="57.6589426 55.8975196 56.7346606 57.4983681 55.8113577 55.8975196"></polyline>
            <polyline id="Path" stroke="#5D3B15" points="32.729765 55.8975196 31.8064621 57.4983681 30.8821802 55.8975196"></polyline>
            <polyline id="Path" stroke="#5D3B15" points="34.5107702 55.8975196 33.5864883 57.4983681 32.6631854 55.8975196"></polyline>
            <polyline id="Path" stroke="#5D3B15" points="36.2907963 55.8975196 35.3674935 57.4983681 34.4441906 55.8975196"></polyline>
            <polyline id="Path" stroke="#5D3B15" points="38.0718016 55.8975196 37.1484987 57.4983681 36.2242167 55.8975196"></polyline>
            <polyline id="Path" stroke="#5D3B15" points="39.8528068 55.8975196 38.9285248 57.4983681 38.0052219 55.8975196"></polyline>
            <polyline id="Path" stroke="#5D3B15" points="41.6328329 55.8975196 40.70953 57.4983681 39.7862272 55.8975196"></polyline>
            <polyline id="Path" stroke="#5D3B15" points="43.4138381 55.8975196 42.4905352 57.4983681 41.5662533 55.8975196"></polyline>
            <polyline id="Path" stroke="#5D3B15" points="45.1948433 55.8975196 44.2705614 57.4983681 43.3472585 55.8975196"></polyline>
            <polyline id="Path" stroke="#231F20" stroke-width="2" points="46.9748695 50.8374674 46.0515666 52.4383159 45.1272846 50.8374674"></polyline>
            <polyline id="Path" stroke="#231F20" stroke-width="2" points="48.7558747 50.8374674 47.8315927 52.4383159 46.9082898 50.8374674"></polyline>
            <polyline id="Path" stroke="#231F20" stroke-width="2" points="50.5359008 50.8374674 49.6125979 52.4383159 48.689295 50.8374674"></polyline>
            <polyline id="Path" stroke="#231F20" stroke-width="2" points="52.316906 50.8374674 51.392624 52.4383159 50.4693211 50.8374674"></polyline>
            <polyline id="Path" stroke="#231F20" stroke-width="2" points="54.0969321 50.8374674 53.1736292 52.4383159 52.2493473 50.8374674"></polyline>
            <polyline id="Path" stroke="#231F20" stroke-width="2" points="55.8779373 50.8374674 54.9546345 52.4383159 54.0303525 50.8374674"></polyline>
            <polyline id="Path" stroke="#231F20" stroke-width="2" points="57.6589426 50.8374674 56.7346606 52.4383159 55.8113577 50.8374674"></polyline>
            <polyline id="Path" stroke="#231F20" stroke-width="2" points="32.729765 50.8374674 31.8064621 52.4383159 30.8821802 50.8374674"></polyline>
            <polyline id="Path" stroke="#231F20" stroke-width="2" points="34.5107702 50.8374674 33.5864883 52.4383159 32.6631854 50.8374674"></polyline>
            <polyline id="Path" stroke="#231F20" stroke-width="2" points="36.2907963 50.8374674 35.3674935 52.4383159 34.4441906 50.8374674"></polyline>
            <polyline id="Path" stroke="#231F20" stroke-width="2" points="38.0718016 50.8374674 37.1484987 52.4383159 36.2242167 50.8374674"></polyline>
            <polyline id="Path" stroke="#231F20" stroke-width="2" points="39.8528068 50.8374674 38.9285248 52.4383159 38.0052219 50.8374674"></polyline>
            <polyline id="Path" stroke="#231F20" stroke-width="2" points="41.6328329 50.8374674 40.70953 52.4383159 39.7862272 50.8374674"></polyline>
            <polyline id="Path" stroke="#231F20" stroke-width="2" points="43.4138381 50.8374674 42.4905352 52.4383159 41.5662533 50.8374674"></polyline>
            <polyline id="Path" stroke="#231F20" stroke-width="2" points="45.1948433 50.8374674 44.2705614 52.4383159 43.3472585 50.8374674"></polyline>
            <polyline id="Path" stroke="#231F20" stroke-width="2" points="46.9748695 54.16547 46.0515666 55.7663185 45.1272846 54.16547"></polyline>
            <polyline id="Path" stroke="#231F20" stroke-width="2" points="48.7558747 54.16547 47.8315927 55.7663185 46.9082898 54.16547"></polyline>
            <polyline id="Path" stroke="#231F20" stroke-width="2" points="50.5359008 54.16547 49.6125979 55.7663185 48.689295 54.16547"></polyline>
            <polyline id="Path" stroke="#231F20" stroke-width="2" points="52.316906 54.16547 51.392624 55.7663185 50.4693211 54.16547"></polyline>
            <polyline id="Path" stroke="#231F20" stroke-width="2" points="54.0969321 54.16547 53.1736292 55.7663185 52.2493473 54.16547"></polyline>
            <polyline id="Path" stroke="#231F20" stroke-width="2" points="55.8779373 54.16547 54.9546345 55.7663185 54.0303525 54.16547"></polyline>
            <polyline id="Path" stroke="#231F20" stroke-width="2" points="57.6589426 54.16547 56.7346606 55.7663185 55.8113577 54.16547"></polyline>
            <polyline id="Path" stroke="#231F20" stroke-width="2" points="32.729765 54.16547 31.8064621 55.7663185 30.8821802 54.16547"></polyline>
            <polyline id="Path" stroke="#231F20" stroke-width="2" points="34.5107702 54.16547 33.5864883 55.7663185 32.6631854 54.16547"></polyline>
            <polyline id="Path" stroke="#231F20" stroke-width="2" points="36.2907963 54.16547 35.3674935 55.7663185 34.4441906 54.16547"></polyline>
            <polyline id="Path" stroke="#231F20" stroke-width="2" points="38.0718016 54.16547 37.1484987 55.7663185 36.2242167 54.16547"></polyline>
            <polyline id="Path" stroke="#231F20" stroke-width="2" points="39.8528068 54.16547 38.9285248 55.7663185 38.0052219 54.16547"></polyline>
            <polyline id="Path" stroke="#231F20" stroke-width="2" points="41.6328329 54.16547 40.70953 55.7663185 39.7862272 54.16547"></polyline>
            <polyline id="Path" stroke="#231F20" stroke-width="2" points="43.4138381 54.16547 42.4905352 55.7663185 41.5662533 54.16547"></polyline>
            <polyline id="Path" stroke="#231F20" stroke-width="2" points="45.1948433 54.16547 44.2705614 55.7663185 43.3472585 54.16547"></polyline>
            <polygon id="Path" fill="#7B542C" fill-rule="nonzero" points="12.6863577 73.2894909 13.7036554 71.1775457 14.6416449 73.2894909 13.6644909 73.8759791"></polygon>
            <polygon id="Path" fill="#7B542C" fill-rule="nonzero" points="14.6416449 73.2894909 15.6589426 71.1775457 16.5969321 73.2894909 15.6197781 73.8759791"></polygon>
            <polygon id="Path" fill="#7B542C" fill-rule="nonzero" points="16.5969321 73.2894909 17.6132507 71.1775457 18.5522193 73.2894909 17.5750653 73.8759791"></polygon>
            <polygon id="Path" fill="#7B542C" fill-rule="nonzero" points="46.9748695 73.2894909 47.9921671 71.1775457 48.9301567 73.2894909 47.9530026 73.8759791"></polygon>
            <polygon id="Path" fill="#7B542C" fill-rule="nonzero" points="48.9301567 73.2894909 49.9474543 71.1775457 50.8854439 73.2894909 49.9082898 73.8759791"></polygon>
            <polygon id="Path" fill="#7B542C" fill-rule="nonzero" points="50.8854439 73.2894909 51.9027415 71.1775457 52.8407311 73.2894909 51.8625979 73.8759791"></polygon>
        </g>
    </g>
</svg>