<svg viewBox="0 0 792 1224" xmlns="http://www.w3.org/2000/svg" xmlns:xlink="http://www.w3.org/1999/xlink"><clipPath id="a"><path d="m623.51 566.85a216.37 216.37 0 0 0 -83.51-170.94 189.58 189.58 0 0 0 -266.52 0 216.8 216.8 0 0 0 -56.34 276v220.67h379.2v-220.68a215.73 215.73 0 0 0 27.17-105.05z"/></clipPath><clipPath id="b"><path d="m516 591v-191.67a109.18 109.18 0 0 0 -218.36 0v191.67"/></clipPath><path d="m478.1 381.43c-18.54-80-107.3-107.3-107.3-107.3z" fill="#fff"/><path d="m472.08 387.45c-18.54-80-107.3-107.3-107.3-107.3z" fill="#fff"/><path d="m478.1 413.89c-18.54-80-107.3-107.3-107.3-107.3z" fill="#fff"/><path d="m472.08 419.91c-18.54-80-107.3-107.3-107.3-107.3z" fill="#fff"/><path d="m331.78 381.43c18.54-80 107.3-107.3 107.3-107.3z" fill="#fff"/><path d="m337.8 387.45c18.54-80 107.3-107.3 107.3-107.3z" fill="#fff"/><path d="m331.78 413.89c18.54-80 107.3-107.3 107.3-107.3z" fill="#fff"/><path d="m337.8 419.91c18.54-80 107.3-107.3 107.3-107.3z" fill="#fff"/><path d="m576.08 649.34v190.49a57.25 57.25 0 0 0 57.25 57.25 57.25 57.25 0 0 0 57.25-57.25h-20a37.08 37.08 0 0 1 -10.9 26.34 37.06 37.06 0 0 1 -26.34 10.91 37 37 0 0 1 -26.34-10.91 37.09 37.09 0 0 1 -10.91-26.34v-190.49z" fill="#fff"/><path d="m680.29 845.18a16.94 16.94 0 0 1 -17.11-16.77c0-9.26 17.11-65.83 17.11-65.83" fill="#231f20"/><path d="m680.22 845.43a16.94 16.94 0 0 0 17.11-16.77c0-9.26-17.11-65.83-17.11-65.83" fill="#231f20"/><path d="m334.73 1080.06v-66.35a37.8 37.8 0 0 0 -75.6 0v66.35" fill="#231f20"/><path d="m270.41 905.89h53.03v151.51h-53.03z" fill="#231f20"/><path d="m554.41 1080.06v-66.35a37.8 37.8 0 0 0 -75.6 0v66.35" fill="#231f20"/><path d="m490.1 905.89h53.03v151.51h-53.03z" fill="#231f20"/><path d="m297.59 686.58v191.66a109.18 109.18 0 0 0 218.36 0v-191.66" fill="#fbc5ba"/><path d="m367.42 976.58v18.16a10.35 10.35 0 0 0 20.7 0v-18.16" fill="#fbc5ba"/><path d="m397.42 976.58v18.16a10.35 10.35 0 0 0 20.7 0v-18.16" fill="#fbc5ba"/><path d="m427.42 976.58v18.16a10.35 10.35 0 0 0 20.7 0v-18.16" fill="#fbc5ba"/><circle cx="406.77" cy="566.85" fill="#fff" r="216.74" transform="matrix(.70710678 -.70710678 .70710678 .70710678 -281.68 453.65)"/><path d="m306.91 1081.48v-92a52.39 52.39 0 0 0 -104.77 0v92" fill="#fff"/><path d="m217.78 840.08h73.5v209.99h-73.5z" fill="#fff"/><path d="m611.4 1081.48v-92a52.39 52.39 0 0 0 -104.78 0v92" fill="#fff"/><path d="m522.26 840.08h73.5v209.99h-73.5z" fill="#fff"/><path d="m596.35 906.58v-382c-.9-100.91-85.43-182.44-189.58-182.44s-188.69 81.56-189.58 182.47v382" fill="#fff"/><g clip-path="url(#a)" fill="#231f20"><circle cx="403.84" cy="519.34" r="92" transform="matrix(.16022575 -.9870804 .9870804 .16022575 -173.48 834.78)"/><circle cx="589.83" cy="644.33" r="92" transform="matrix(.92567262 -.37832552 .37832552 .92567262 -199.91 271)"/><circle cx="189.67" cy="540.34" r="92"/></g><path d="m501.07 325.07c25.67-16.74 106.58-3.27 106.58-3.27s-20.31 79.47-46 96.21a55.48 55.48 0 1 1 -60.61-92.94z" fill="#231f20"/><path d="m312.47 325.07c-25.67-16.74-106.58-3.27-106.58-3.27s20.3 79.47 46 96.21a55.48 55.48 0 1 0 60.61-92.94z" fill="#231f20"/><path d="m407.79 927h5.07l-119.59-75.37v3.19z"/><path d="m388.39 927h5.07l-100.19-63.15v3.2z"/><path d="m398.09 927h5.08l-109.9-69.26v3.2z"/><path d="m378.69 927h5.07l-90.49-57.03v3.19z"/><path d="m368.98 927h5.08l-80.79-50.92v3.2z"/><path d="m349.58 927h5.08l-61.39-38.69v3.2z"/><path d="m359.28 927h5.08l-71.09-44.8v3.19z"/><path d="m339.88 927h5.07l-51.68-32.58v3.2z"/><path d="m330.18 927h5.07l-41.98-26.46v3.2z"/><path d="m310.77 927h5.08l-22.58-14.23v3.2z"/><path d="m320.48 927h5.07l-32.28-20.35v3.2z"/><path d="m293.27 918.88v3.2l7.81 4.92h5.07z"/><path d="m293.27 925v2h.01 3.17z"/><path d="m493.82 760.93a108.52 108.52 0 0 0 -7.62-8l-37.88-23.87q-5.16-2-10.56-3.47z"/><path d="m417.63 721.94c-1.88-.17-3.78-.3-5.68-.39l96.3 60.7c-.86-1.66-1.75-3.29-2.69-4.9z"/><path d="m430.31 723.81q-3.46-.7-7-1.21l79.29 50q-1.92-2.93-4-5.73z"/><path d="m407.13 721.44h-.36c-1.53 0-3 0-4.56.1l110 69.35c-.61-1.49-1.26-3-1.93-4.41z"/><path d="m398 721.76c-1.48.11-2.95.26-4.41.42l121.6 76.64c-.44-1.37-.91-2.73-1.4-4.08z"/><path d="m382.16 724c-1.25.27-2.49.55-3.72.86l140.25 88.39c-.21-1.22-.44-2.43-.69-3.64z"/><path d="m389.69 722.67c-1.34.2-2.68.43-4 .67l131.56 82.91c-.32-1.28-.66-2.56-1-3.83z"/><path d="m375.19 725.76c-1.16.33-2.3.67-3.44 1l147.88 93.24c-.12-1.16-.26-2.31-.43-3.46z"/><path d="m368.71 727.79c-1.09.37-2.16.76-3.23 1.16l154.65 97.47q-.07-1.67-.21-3.33z"/><path d="m356.94 732.6c-1 .46-1.9.92-2.85 1.4l166.18 104.73v-3.19z"/><path d="m359.62 731.37 160.65 101.25v-2-1.25l-157.6-99.32c-1.05.44-2.06.88-3.05 1.32z"/><path d="m351.57 735.33c-.91.49-1.8 1-2.69 1.5l171.39 108v-3.2z"/><path d="m346.49 738.25c-.85.52-1.7 1-2.54 1.59l176.32 111.16v-3.2z"/><path d="m337.16 744.59c-.77.58-1.53 1.17-2.28 1.76l185.39 116.85v-3.2z"/><path d="m341.7 741.34c-.81.55-1.62 1.11-2.41 1.68l181 114.06v-3.2z"/><path d="m332.86 748c-.72.6-1.44 1.22-2.15 1.84l189.56 119.47v-3.2z"/><path d="m328.8 751.55q-1 .94-2 1.92l193.47 121.95v-3.19z"/><path d="m321.34 759.08c-.61.68-1.22 1.36-1.81 2.06l200.74 126.51v-3.2z"/><path d="m325 755.25c-.65.65-1.29 1.31-1.92 2l197.23 124.3v-3.2z"/><path d="m317.93 763.05c-.58.7-1.14 1.41-1.7 2.12l204 128.6v-3.2z"/><path d="m314.73 767.14q-.81 1.1-1.59 2.19l207.13 130.55v-3.2z"/><path d="m309 775.73c-.47.77-.93 1.54-1.38 2.33l212.7 134.05v-3.2z"/><path d="m311.74 771.37c-.51.75-1 1.5-1.49 2.26l210.02 132.37v-3.21z"/><path d="m306.37 780.21c-.44.8-.86 1.6-1.27 2.4l215.17 135.61v-3.22z"/><path d="m304 784.83c-.39.82-.78 1.64-1.15 2.47l217.43 137v-3.2z"/><path d="m505.09 927h5.08l-210.28-132.52c-.32.86-.62 1.73-.92 2.61z"/><path d="m519.07 926.5-217.24-136.91c-.35.84-.7 1.68-1 2.54l213.89 134.87a28.9 28.9 0 0 1 4.35-.5z"/><path d="m495.39 927h5.07l-202.28-127.49c-.28.89-.55 1.79-.81 2.69z"/><path d="m485.69 927h5.07l-194.06-122.31c-.24.92-.47 1.84-.68 2.77z"/><path d="m466.29 927h5.07l-176.87-111.47c-.15 1-.29 2-.41 2.94z"/><path d="m476 927h5.07l-185.61-117q-.29 1.43-.54 2.85z"/><path d="m456.59 927h5.07l-167.87-105.8c-.1 1-.19 2-.26 3z"/><path d="m446.88 927h5.12l-158.62-99.94c-.05 1-.08 2.09-.09 3.14z"/><path d="m427.48 927h5.08l-139.29-87.79v3.2z"/><path d="m437.19 927h5.07l-148.99-93.9v3.19z"/><path d="m417.78 927h5.07l-129.58-81.67v3.2z"/><path d="m516 591v-191.67a109.18 109.18 0 0 0 -218.36 0v191.67" fill="#fff"/><g clip-path="url(#b)" fill="#231f20"><circle cx="526.35" cy="423" r="83"/><circle cx="287.35" cy="423" r="83"/></g><path d="m472.84 425.38a9 9 0 1 0 9-9 9 9 0 0 0 -9 9z" fill="#231f20" stroke="#c2b59b" stroke-width="4"/><path d="m321.07 425.38a9 9 0 1 0 9-9 9 9 0 0 0 -9 9z" fill="#231f20" stroke="#c2b59b" stroke-width="4"/><path d="m331.44 419.42a4.56 4.56 0 1 0 4.56-4.56 4.56 4.56 0 0 0 -4.56 4.56z" fill="#fff"/><path d="m483.35 419.42a4.56 4.56 0 1 0 4.56-4.56 4.56 4.56 0 0 0 -4.56 4.56z" fill="#fff"/><path d="m506.44 591.49h-199.34l24.73-122h149.88z" fill="#fbc5ba"/><g fill="#231f20"><path d="m444.62 525.07a9 9 0 1 0 9-9 9 9 0 0 0 -9 9z"/><path d="m351 525.07a9 9 0 1 0 9-9 9 9 0 0 0 -9 9z"/><path d="m407.44 582.15h-1.35v-141.47h1.35"/><path d="m216.67 735.33a42.34 42.34 0 0 1 0 84.67"/><path d="m216 1045v37h37"/><path d="m291 1045v37h-37"/><path d="m521 1045v37h37"/><path d="m596 1045v37h-37"/><path d="m255.27 848.1h1.35v80.41h-1.35z" transform="matrix(.70747692 -.70673644 .70673644 .70747692 -552.95 440.78)"/><path d="m255.27 829.76h1.35v80.41h-1.35z" transform="matrix(.70747692 -.70673644 .70673644 .70747692 -539.99 435.41)"/><path d="m255.27 811.42h1.35v80.41h-1.35z" transform="matrix(.70747692 -.70673644 .70673644 .70747692 -527.02 430.05)"/><path d="m255.27 793.08h1.35v80.41h-1.35z" transform="matrix(.70747692 -.70673644 .70673644 .70747692 -514.06 424.69)"/><path d="m215.74 887.63h80.41v1.35h-80.41z" transform="matrix(.70673644 -.70747692 .70747692 .70673644 -553.37 441.54)"/><path d="m215.74 869.29h80.41v1.35h-80.41z" transform="matrix(.70673644 -.70747692 .70747692 .70673644 -540.39 436.16)"/><path d="m215.74 850.94h80.41v1.35h-80.41z" transform="matrix(.70673644 -.70747692 .70747692 .70673644 -527.42 430.78)"/><path d="m215.74 832.6h80.41v1.35h-80.41z" transform="matrix(.70673644 -.70747692 .70747692 .70673644 -514.44 425.4)"/><path d="m555.26 848.1h1.35v80.41h-1.35z" transform="matrix(.70747692 -.70673644 .70673644 .70747692 -465.17 652.75)"/><path d="m555.26 829.76h1.35v80.41h-1.35z" transform="matrix(.70747692 -.70673644 .70673644 .70747692 -452.21 647.38)"/><path d="m555.26 811.42h1.35v80.41h-1.35z" transform="matrix(.70747692 -.70673644 .70673644 .70747692 -439.25 642.02)"/><path d="m555.26 793.08h1.35v80.41h-1.35z" transform="matrix(.70747692 -.70673644 .70673644 .70747692 -426.29 636.66)"/><path d="m515.73 887.63h80.41v1.35h-80.41z" transform="matrix(.70673644 -.70747692 .70747692 .70673644 -465.42 653.82)"/><path d="m515.73 869.29h80.41v1.35h-80.41z" transform="matrix(.70673644 -.70747692 .70747692 .70673644 -452.44 648.44)"/><path d="m515.73 850.94h80.41v1.35h-80.41z" transform="matrix(.70673644 -.70747692 .70747692 .70673644 -439.47 643.06)"/><path d="m515.73 832.6h80.41v1.35h-80.41z" transform="matrix(.70673644 -.70747692 .70747692 .70673644 -426.49 637.67)"/></g></svg>