<svg viewBox="0 0 792 1224" xmlns="http://www.w3.org/2000/svg"><path d="m0 570.96h792v649.47h-792z" fill="none"/><path d="m509.22 856.84s-15.84 120.16-132.69 102.73c0 0 59.88-23 86.58-127.6z" fill="#1b75bc"/><path d="m358.13 333.74a82.37 82.37 0 0 0 99.87 59.87l-20-79.89z" fill="#1b75bc"/><path d="m364.41 451.21c46.87-139.66 125-221.64 259.31-218.45.77-15.92 4.58-15.77-9.91-32.9-138.52-163.86-382.92 28.67-440.81 201.14s54.4 364.1 231.18 423.43a344.72 344.72 0 0 0 113.82 18c-137.92-67.9-206.15-234.64-153.59-391.22z" fill="#00b0d8"/><path d="m660.9 215.53c-3.85-27.86-46.13-46.17-94.42-40.89l7 50.44z" fill="#00b0d8"/><path d="m658.93 213.77c-.63 11.45-20.31 19.87-44 18.8l1.14-20.74z" fill="#00b0d8"/><path d="m462.12 192.54a7.38 7.38 0 1 0 9.34-4.65 7.39 7.39 0 0 0 -9.34 4.65z" fill="#231f20"/><path d="m466.29 193.94a3 3 0 1 0 3.77-1.88 3 3 0 0 0 -3.77 1.88z" fill="#00b0d8"/><path d="m488 198.94a10.08 10.08 0 1 0 12.77-6.36 10.07 10.07 0 0 0 -12.77 6.36z" fill="#fff"/><g fill="#afdfe4"><path d="m309.51 580.62c.25 1 .51 1.91.78 2.86l40.2 25.34c-.13-.87-.27-1.75-.39-2.62z"/><path d="m312.69 591.67c.31 1 .62 2 .94 3l38.55 24.29c-.17-.88-.31-1.77-.47-2.65z"/><path d="m311 586.1c.28 1 .56 1.94.85 2.9l39.41 24.84c-.14-.88-.3-1.76-.44-2.64z"/><path d="m314.51 597.34c.33 1 .67 2 1 3l37.67 23.74c-.19-.9-.36-1.8-.53-2.7z"/><path d="m316.48 603.11c.37 1 .73 2 1.11 3.06l36.69 23.13-.6-2.75z"/><path d="m321 615 1.29 3.17 34.53 21.76c-.24-.92-.45-1.86-.68-2.79z"/><path d="m318.63 609c.39 1 .79 2.08 1.19 3.12l35.66 22.47c-.22-.93-.44-1.85-.65-2.77z"/><path d="m323.46 621.07c.46 1.09.93 2.17 1.4 3.25l33.34 21-.75-2.84z"/><path d="m326.18 627.31c.5 1.11 1 2.21 1.51 3.31l32.07 20.21c-.28-1-.56-1.92-.83-2.89z"/><path d="m332.28 640.2c.59 1.16 1.17 2.32 1.77 3.47l29.2 18.41c-.33-1-.66-2-1-3z"/><path d="m329.11 633.68c.54 1.13 1.08 2.26 1.63 3.39l30.69 19.34c-.3-1-.62-2-.91-2.94z"/><path d="m335.71 646.88 1.9 3.56 27.59 17.39c-.35-1-.69-2-1-3z"/><path d="m339.42 653.74c.68 1.22 1.36 2.44 2.05 3.66l25.84 16.28c-.38-1-.74-2-1.1-3.06z"/><path d="m347.76 668c.8 1.3 1.61 2.6 2.41 3.88l21.93 13.82c-.45-1.06-.88-2.12-1.31-3.19z"/><path d="m343.42 660.78c.74 1.26 1.48 2.52 2.22 3.76l24 15.11c-.41-1-.8-2.08-1.2-3.12z"/><path d="m352.47 675.53q1.3 2 2.62 4l19.7 12.47c-.48-1.08-1-2.17-1.42-3.26z"/><path d="m357.59 683.28c1 1.4 1.91 2.79 2.86 4.17l17.25 10.87c-.52-1.11-1-2.23-1.54-3.34z"/><path d="m369.31 699.71q1.72 2.29 3.44 4.53l11.54 7.27c-.62-1.16-1.21-2.33-1.81-3.5z"/><path d="m363.18 691.33c1.05 1.46 2.09 2.91 3.14 4.33l14.54 9.17c-.57-1.14-1.12-2.28-1.68-3.42z"/><path d="m376.07 708.49q1.9 2.41 3.81 4.77l8.12 5.14c-.67-1.2-1.32-2.41-2-3.61z"/><path d="m387.83 722.79 4.35 2.74c-.74-1.24-1.47-2.49-2.2-3.75l-6.42-4q2.16 2.54 4.27 5.01z"/><path d="m394.28 729-2.28-1.45c1.59 1.8 3.15 3.55 4.7 5.26-.84-1.26-1.64-2.52-2.42-3.81z"/><path d="m325 391.29c-.24.64-.49 1.27-.73 1.91l49.73 31.34.74-1.89z"/><path d="m322.27 398.61-.71 1.92 49.69 31.31.72-1.91z"/><path d="m323.63 394.94c-.23.64-.47 1.28-.71 1.92l49.71 31.33.72-1.91z"/><path d="m320.93 402.28c-.24.64-.47 1.28-.7 1.93l49.67 31.31c.24-.65.47-1.29.71-1.93z"/><path d="m319.6 406-.69 1.93 49.66 31.3.69-1.93z"/><path d="m317 413.38-.66 1.94 49.66 31.29.66-1.95z"/><path d="m318.29 409.67c-.23.64-.45 1.29-.67 1.94l49.64 31.29.74-1.9z"/><path d="m315.73 417.1-.61 1.8a.88.88 0 0 1 -.05.15l49.64 31.28.66-1.95z"/><path d="m314.49 420.84c-.21.65-.43 1.3-.64 2l49.63 31.27.63-2z"/><path d="m312.11 428.38c-.2.67-.39 1.33-.58 2l49.58 31.25c.2-.67.39-1.33.6-2z"/><path d="m313.28 424.6c-.21.66-.41 1.32-.61 2l49.59 31.26.64-2z"/><path d="m311 432.2c-.19.67-.37 1.34-.56 2l49.56 31.23.6-2z"/><path d="m309.92 436.05-.54 2 49.53 31.21c.18-.67.36-1.34.55-2z"/><path d="m307.92 443.83c-.16.68-.33 1.37-.49 2.05l49.43 31.12c.17-.68.34-1.36.52-2z"/><path d="m308.9 439.92c-.17.68-.35 1.36-.52 2l49.47 31.18c.17-.68.37-1.35.55-2z"/><path d="m307 447.77c-.16.69-.32 1.38-.47 2.07l49.36 31.16c.16-.69.34-1.37.51-2.05z"/><path d="m306.12 451.74c-.15.69-.29 1.39-.44 2.09l49.32 31.07c.15-.69.31-1.38.47-2.07z"/><path d="m304.52 459.77c-.13.71-.25 1.42-.38 2.13l49.15 31c.14-.7.28-1.39.43-2.09z"/><path d="m305.29 455.74c-.14.7-.27 1.4-.4 2.11l49.22 31c.14-.7.3-1.39.45-2.08z"/><path d="m303.8 463.84c-.12.72-.23 1.43-.34 2.15l49 30.91c.13-.71.26-1.41.4-2.12z"/><path d="m303.15 468c-.11.72-.22 1.44-.32 2.16l48.93 30.84.39-2.13z"/><path d="m302 476.27c-.09.74-.17 1.47-.26 2.2l48.68 30.68c.11-.71.23-1.43.34-2.15z"/><path d="m302.54 472.09c-.1.73-.19 1.46-.29 2.19l48.82 30.72c.12-.71.22-1.43.34-2.15z"/><path d="m301.52 480.49c-.08.74-.16 1.48-.23 2.22l48.55 30.6c.1-.73.19-1.46.29-2.18z"/><path d="m301.1 484.75c-.07.75-.13 1.5-.2 2.24l48.37 30.48c.09-.72.2-1.45.3-2.17z"/><path d="m300.45 493.39-.12 2.28 48 30.26c.07-.74.15-1.48.23-2.22z"/><path d="m300.74 489.05c-.05.75-.11 1.51-.16 2.26l48.21 30.38c.08-.73.16-1.47.25-2.21z"/><path d="m300.23 497.77-.09 2.31 47.8 30.12.21-2.23z"/><path d="m300 504.53 47.57 30c0-.76.1-1.51.16-2.27l-47.68-30.05c.01.79-.05 1.54-.05 2.32z"/><path d="m300 511.18v2.39l47.05 29.65c0-.76.06-1.53.1-2.3z"/><path d="m347.46 536.57-47.46-29.91v2.36l47.31 29.82c.04-.75.1-1.51.15-2.27z"/><path d="m300.06 515.75c0 .81.05 1.61.08 2.41l46.75 29.46c0-.76.06-1.53.09-2.3z"/><path d="m300.22 520.37c0 .81.07 1.62.11 2.44l46.44 29.27.06-2.33z"/><path d="m300.77 529.76c.07.83.13 1.66.2 2.49l45.73 28.82c0-.78 0-1.57 0-2.36z"/><path d="m300.45 525c.05.82.1 1.64.16 2.46l46.1 29.06c0-.79 0-1.57 0-2.36z"/><path d="m301.18 534.54c.08.84.16 1.69.25 2.52l45.35 28.58c0-.79 0-1.59 0-2.39z"/><path d="m301.68 539.38c.09.85.2 1.7.3 2.55l44.91 28.31c0-.81-.05-1.61-.07-2.41z"/><path d="m303 549.23c.13.88.26 1.75.4 2.62l44 27.72c-.05-.82-.11-1.64-.15-2.46z"/><path d="m302.27 544.27c.12.87.23 1.73.35 2.59l44.46 28-.09-2.43z"/><path d="m303.77 554.26c.15.89.3 1.77.46 2.65l43.44 27.38-.18-2.47z"/><path d="m304.66 559.35c.17.9.35 1.79.53 2.69l42.89 27c-.08-.83-.15-1.66-.22-2.5z"/><path d="m306.82 569.75c.21.93.42 1.85.64 2.77l41.64 26.24c-.1-.85-.2-1.7-.29-2.55z"/><path d="m305.69 564.51c.19.91.37 1.82.57 2.73l42.3 26.66c-.09-.85-.19-1.69-.27-2.54z"/><path d="m308.07 575.06c.24.94.47 1.88.71 2.81l41 25.82c-.12-.86-.22-1.72-.33-2.58z"/><path d="m413.56 247.61-1.56 1.39 54.86 34.58c.54-.45 1.07-.91 1.62-1.35z"/><path d="m407.85 253.05c-.49.47-1 1-1.46 1.45l54.45 34.31 1.56-1.38z"/><path d="m410.67 250.31-1.48 1.42 54.65 34.45 1.58-1.37z"/><path d="m405.08 255.83-1.42 1.47 54.24 34.18 1.54-1.4z"/><path d="m402.37 258.64-1.37 1.49 54 34.06 1.5-1.42z"/><path d="m397.13 264.38c-.45.5-.9 1-1.34 1.52l53.65 33.81 1.44-1.45z"/><path d="m399.72 261.49c-.45.5-.91 1-1.36 1.51l53.85 33.94 1.46-1.45z"/><path d="m394.58 267.3-1.32 1.53 53.47 33.7c.47-.5.94-1 1.41-1.47z"/><path d="m392.08 270.24-1.29 1.56 53.28 33.57 1.38-1.49z"/><path d="m387.23 276.23c-.42.52-.83 1-1.24 1.58l52.9 33.34 1.34-1.51z"/><path d="m389.63 273.22-1.26 1.57 53.09 33.46 1.35-1.51z"/><path d="m384.86 279.26c-.4.53-.81 1.06-1.21 1.6l52.74 33.24c.43-.52.87-1 1.3-1.54z"/><path d="m382.55 282.32-1.2 1.61 52.57 33.14 1.28-1.57z"/><path d="m378 288.52-1.15 1.64 52.24 32.93 1.24-1.59z"/><path d="m380.27 285.41-1.17 1.59 52.39 33c.42-.53.85-1.05 1.27-1.57z"/><path d="m375.84 291.66-1.14 1.65 52.09 32.83c.41-.53.81-1.08 1.21-1.61z"/><path d="m373.67 294.82-1.11 1.66 51.94 32.73c.39-.54.8-1.07 1.19-1.61z"/><path d="m369.46 301.21-1.08 1.68 51.67 32.56 1.14-1.64z"/><path d="m371.55 298c-.37.55-.73 1.12-1.1 1.68l51.8 32.64 1.18-1.62z"/><path d="m367.41 304.43-1.07 1.7 51.53 32.47 1.13-1.6z"/><path d="m365.39 307.68-1.05 1.71 51.4 32.39c.37-.55.74-1.11 1.12-1.66z"/><path d="m361.44 314.24-1 1.73 51.16 32.24 1.07-1.69z"/><path d="m363.4 311c-.34.57-.69 1.14-1 1.72l51.25 32.28c.36-.56.72-1.13 1.09-1.68z"/><path d="m359.52 317.55c-.34.57-.67 1.16-1 1.74l51.05 32.17 1.06-1.7z"/><path d="m357.62 320.88-1 1.75 50.95 32.1c.34-.57.68-1.15 1-1.71z"/><path d="m353.92 327.59-.95 1.76 50.75 32c.33-.58.66-1.16 1-1.74z"/><path d="m355.76 324.22-1 1.76 50.84 32 1-1.72z"/><path d="m352.11 331-.93 1.78 50.65 31.92c.33-.58.65-1.17 1-1.75z"/><path d="m350.33 334.37c-.3.6-.61 1.19-.92 1.78l50.59 31.85c.32-.59.65-1.17 1-1.75z"/><path d="m346.85 341.22c-.29.6-.59 1.2-.89 1.8l50.4 31.77.93-1.78z"/><path d="m348.58 337.79-.91 1.79 50.49 31.82c.31-.59.63-1.18.95-1.77z"/><path d="m345.15 344.67c-.29.61-.59 1.2-.88 1.81l50.33 31.72.92-1.78z"/><path d="m343.48 348.14-.87 1.82 50.26 31.68.9-1.8z"/><path d="m340.2 355.12c-.28.61-.56 1.21-.84 1.83l50.13 31.6c.29-.61.59-1.21.88-1.81z"/><path d="m341.83 351.62c-.29.61-.58 1.21-.86 1.83l50.2 31.63.88-1.8z"/><path d="m338.6 358.63c-.28.61-.56 1.22-.83 1.84l50.08 31.53c.28-.6.56-1.22.85-1.82z"/><path d="m337 362.16c-.27.61-.55 1.22-.82 1.84l50 31.53.85-1.83z"/><path d="m333.14 371.12 49.93 31.47.81-1.86-49.95-31.48c-.27.62-.53 1.24-.79 1.87z"/><path d="m335.46 365.7c-.27.61-.54 1.23-.8 1.85l50 31.5.82-1.84z"/><path d="m331.64 374.69 49.89 31.45c.26-.63.53-1.24.8-1.86l-49.91-31.46z"/><path d="m330.93 376.4c-.26.63-.52 1.26-.77 1.89l49.84 31.41c.26-.62.52-1.25.79-1.87z"/><path d="m328 383.61-.75 1.9 49.79 31.37c.26-.62.51-1.25.76-1.88z"/><path d="m329.46 380c-.26.62-.51 1.26-.76 1.89l49.81 31.39c.26-.63.53-1.24.79-1.87z"/><path d="m326.59 387.24c-.25.63-.5 1.26-.74 1.89l49.75 31.36.76-1.89z"/><path d="m556 237.73-4-.15 3.06 1.93 2.75-.63z"/><path d="m560.31 238.32 2.25-.46h-3z"/><path d="m548.26 237.4c-1.37-.07-2.75-.16-4.16-.25l5.8 3.65 2.67-.68z"/><path d="m540.21 236.85c-1.46-.12-2.92-.26-4.39-.4l9.09 5.72 2.59-.73z"/><path d="m522.45 234.7c-1.75-.28-3.5-.6-5.24-.93l18.1 11.4 2.45-.82z"/><path d="m531.68 236c-1.57-.18-3.15-.38-4.72-.6l13.09 8.24 2.52-.77z"/><path d="m512.06 232.68q-3.19-.74-6.28-1.6l24.92 15.71c.8-.29 1.58-.59 2.38-.86z"/><path d="m498.93 228.92c-10.07-3.55-18.71-8.47-24.22-15.23a28.56 28.56 0 0 0 -3 .46l54.47 34.33c.77-.3 1.54-.61 2.32-.9z"/><path d="m464.26 216.11c-.78.25-1.6.53-2.45.83l55.73 35.12c.74-.33 1.49-.64 2.23-1z"/><path d="m469.21 214.71c-.8.2-1.68.43-2.64.7l55.25 34.83 2.28-.94z"/><path d="m459.65 217.73c-.75.28-1.52.59-2.31.91l56 35.31 2.19-1z"/><path d="m455.29 219.51c-.72.31-1.45.63-2.2 1l56.2 35.42 2.13-1z"/><path d="m447.16 223.42-2 1.09 56.28 35.49 2-1.1z"/><path d="m451.14 221.41c-.69.33-1.39.68-2.11 1l56.29 35.48 2.07-1.07z"/><path d="m443.33 225.53-1.95 1.14 56.26 35.46 2-1.13z"/><path d="m439.63 227.72-1.89 1.18 56.19 35.41 1.93-1.15z"/><path d="m432.58 232.33-1.77 1.24 55.94 35.26c.61-.41 1.23-.8 1.85-1.2z"/><path d="m436.05 230-1.83 1.21 56.07 35.34c.63-.4 1.27-.78 1.9-1.17z"/><path d="m429.22 234.73c-.58.41-1.15.84-1.73 1.28l55.79 35.15 1.8-1.22z"/><path d="m425.94 237.18-1.68 1.31 55.62 35.06c.59-.42 1.17-.85 1.76-1.26z"/><path d="m419.64 242.26-1.59 1.36 55.24 34.81 1.7-1.28z"/><path d="m422.75 239.7c-.54.43-1.09.88-1.63 1.33l55.43 34.97 1.73-1.28z"/><path d="m416.61 244.87-1.56 1.38 55.06 34.75 1.66-1.31z"/></g><path d="m469.55 190.15a2.92 2.92 0 1 0 3.69-1.83 2.92 2.92 0 0 0 -3.69 1.83z" fill="#fff"/><path d="m662.87 215.66-136.72-.18s-5.24-17.93-26.64-12.81" fill="none" stroke="#231f20"/><path d="m80 361.83a129.07 129.07 0 0 1 170.78-64.33l-53.24 117.57z" fill="#00b0d8"/><path d="m580.2 173.85s-65.45-52.21-152.38-17.39c0 0 74.68-25.57 152.38 17.39z" fill="#fff"/><path d="m451.83 215.85s-44 17.94-65.56 50.78l-1.87-13.28s24.1-30.95 67.43-37.5z" fill="#1b75bc"/><path d="m310.7 400.64s-64.08 150.07 41.49 291.25c0 0-117.44-124.66-51.56-298.94z" fill="#1b75bc"/><path d="m228.26 307.46a163 163 0 0 0 197.74 118.47l-39.6-158.07z" fill="#00b0d8"/><path d="m518.49 842.46s32.47 128.78-81.9 158.42c0 0 46.11-56.52 29.73-163.28z" fill="#00b0d8"/><path d="m230.35 300.92s-95.61-23.66-140.85 58.08c0 0 36-67.5 131.77-53.8l-7 21.57z" fill="#fff"/></svg>