<svg viewBox="0 0 20.06 27.24" xmlns="http://www.w3.org/2000/svg"><g fill="#d5d10e"><path d="m10 0a10 10 0 0 0 -10 10v9.22h9.75v-1.46l-3.61-3.61h-2.78v-.72h2.06l-1.71-1.7.51-.51 5.53 5.52v-4l-3.35-3.39-2.11-2.12.5-.51 1.64 1.64v-2.47h.73v3.19l2.59 2.59v-6.37l-1.58-1.58.51-.5 1.43 1.42 1.44-1.44.51.51-1.59 1.59v6.38l2.6-2.6v-3.19h.72v2.47l1.64-1.64.51.51-5.47 5.47v4l5.53-5.48.51.51-1.72 1.71h2v.72h-2.73l-3.59 3.59v1.5h9.59v-9.25a10 10 0 0 0 -10.06-10z"/><path d="m9.78 19.27h.72v7.97h-.72z"/></g></svg>