<svg viewBox="0 0 41.81 57.07" xmlns="http://www.w3.org/2000/svg"><path d="m34.07 45.16a2.79 2.79 0 1 1 -2.79-2.79 2.79 2.79 0 0 1 2.79 2.79z" fill="#f26531"/><path d="m20.96 40.08v16.99" fill="none" stroke="#f3ea00" stroke-width="1.5"/><path d="m20.91 0a20.91 20.91 0 0 0 -19.41 13.15h11.8v-1h1.5v1h5.4v-2.22l-3.28-3.28 1.08-1.06 3 3 3-3 1 1.03-3.31 3.31v2.22h5.4v-1h1.51v1h11.71a20.91 20.91 0 0 0 -19.4-13.15z" fill="#b8b308"/><g fill="#d5d10e"><path d="m14.8 13.87v4.95l5.4 5.4v-10.35-.72h-5.4z"/><path d="m0 20.9v5.7h9.9l-2.28-2.28 1.06-1.06 3.51 3.51-.19-.17h8.2v-.26l-7-7-4.39-4.34 1.07-1.07 3.42 3.42v-4.2h-11.8a20.81 20.81 0 0 0 -1.5 7.75z"/><path d="m21.71 13.87v10.35l5.4-5.41v-4.94-.72h-5.4z"/><path d="m28.62 13.15v4.16l3.38-3.42 1.1 1.11-11.39 11.34v.26h8.15l-.17.17 3.51-3.51 1.06 1.06-2.26 2.28h9.83v-5.7a20.81 20.81 0 0 0 -1.5-7.75z"/></g><path d="m31.98 26.6-1.32 1.32h4.22v1.51h-5.72l-7.45 7.45v3.19h20.1v-13.47z" fill="#f3ea00"/><path d="m12.19 26.77 8.01 8.01v-8.01-.17h-8.18z" fill="#f3ea00"/><path d="m0 40.07h20.2v-3.17l-7.48-7.47h-5.71v-1.51h4.21l-1.32-1.32h-9.9z" fill="#f3ea00"/><path d="m21.71 26.6v.17 7.98l7.98-7.98.17-.17z" fill="#f3ea00"/></svg>